REM DIRINDEX 1\2,1\4,1\3\5,1\3\6,1\3\7
REM DIRNAME cjc081,folder01,folder02,folder03,folder04,folder05,folder06
TITLE ""
FILE "CD2Track03.mp3" MP3
  TRACK 01 AUDIO
    TITLE "0:"
    INDEX 01 00:00:00
  TRACK 02 AUDIO
    TITLE "5:cjc081_1188"
    INDEX 01 00:00:23
  TRACK 03 AUDIO
    TITLE "0:"
    INDEX 01 00:01:30
  TRACK 04 AUDIO
    TITLE "6:cjc081_1189"
    INDEX 01 00:02:00
  TRACK 05 AUDIO
    TITLE "0:"
    INDEX 01 00:03:23
  TRACK 06 AUDIO
    TITLE "5:cjc081_1190"
    INDEX 01 00:03:66
  TRACK 07 AUDIO
    TITLE "0:"
    INDEX 01 00:05:07
  TRACK 08 AUDIO
    TITLE "6:cjc081_1191"
    INDEX 01 00:05:52
  TRACK 09 AUDIO
    TITLE "0:"
    INDEX 01 00:06:67
  TRACK 10 AUDIO
    TITLE "5:cjc081_1192"
    INDEX 01 00:07:35
  TRACK 11 AUDIO
    TITLE "0:"
    INDEX 01 00:08:60
  TRACK 12 AUDIO
    TITLE "6:cjc081_1193"
    INDEX 01 00:09:26
  TRACK 13 AUDIO
    TITLE "0:"
    INDEX 01 00:10:49
  TRACK 14 AUDIO
    TITLE "5:cjc081_1194"
    INDEX 01 00:11:17
  TRACK 15 AUDIO
    TITLE "0:"
    INDEX 01 00:12:63
  TRACK 16 AUDIO
    TITLE "6:cjc081_1195"
    INDEX 01 00:13:28
  TRACK 17 AUDIO
    TITLE "0:"
    INDEX 01 00:15:54
  TRACK 18 AUDIO
    TITLE "5:cjc081_1196"
    INDEX 01 00:16:20
  TRACK 19 AUDIO
    TITLE "0:"
    INDEX 01 00:17:37
  TRACK 20 AUDIO
    TITLE "6:cjc081_1197"
    INDEX 01 00:18:13
  TRACK 21 AUDIO
    TITLE "0:"
    INDEX 01 00:19:20
  TRACK 22 AUDIO
    TITLE "5:cjc081_1198"
    INDEX 01 00:19:65
  TRACK 23 AUDIO
    TITLE "0:"
    INDEX 01 00:21:60
  TRACK 24 AUDIO
    TITLE "6:cjc081_1199"
    INDEX 01 00:22:34
  TRACK 25 AUDIO
    TITLE "0:"
    INDEX 01 00:24:27
  TRACK 26 AUDIO
    TITLE "5:cjc081_1200"
    INDEX 01 00:24:69
  TRACK 27 AUDIO
    TITLE "0:"
    INDEX 01 00:27:39
  TRACK 28 AUDIO
    TITLE "6:cjc081_1201"
    INDEX 01 00:28:10
  TRACK 29 AUDIO
    TITLE "0:"
    INDEX 01 00:31:06
  TRACK 30 AUDIO
    TITLE "5:cjc081_1202"
    INDEX 01 00:31:53
  TRACK 31 AUDIO
    TITLE "0:"
    INDEX 01 00:33:38
  TRACK 32 AUDIO
    TITLE "6:cjc081_1203"
    INDEX 01 00:34:08
  TRACK 33 AUDIO
    TITLE "0:"
    INDEX 01 00:36:03
  TRACK 34 AUDIO
    TITLE "5:cjc081_1204"
    INDEX 01 00:36:50
  TRACK 35 AUDIO
    TITLE "0:"
    INDEX 01 00:38:06
  TRACK 36 AUDIO
    TITLE "6:cjc081_1205"
    INDEX 01 00:38:47
  TRACK 37 AUDIO
    TITLE "0:"
    INDEX 01 00:40:21
  TRACK 38 AUDIO
    TITLE "5:cjc081_1206"
    INDEX 01 00:40:62
  TRACK 39 AUDIO
    TITLE "0:"
    INDEX 01 00:42:12
  TRACK 40 AUDIO
    TITLE "6:cjc081_1207"
    INDEX 01 00:42:59
  TRACK 41 AUDIO
    TITLE "0:"
    INDEX 01 00:44:18
  TRACK 42 AUDIO
    TITLE "5:cjc081_1208"
    INDEX 01 00:44:61
  TRACK 43 AUDIO
    TITLE "0:"
    INDEX 01 00:45:73
  TRACK 44 AUDIO
    TITLE "6:cjc081_1209"
    INDEX 01 00:46:43
  TRACK 45 AUDIO
    TITLE "0:"
    INDEX 01 00:47:72
  TRACK 46 AUDIO
    TITLE "5:cjc081_1210"
    INDEX 01 00:48:42
  TRACK 47 AUDIO
    TITLE "0:"
    INDEX 01 00:50:48
  TRACK 48 AUDIO
    TITLE "6:cjc081_1211"
    INDEX 01 00:51:20
  TRACK 49 AUDIO
    TITLE "0:"
    INDEX 01 00:53:62
  TRACK 50 AUDIO
    TITLE "5:cjc081_1212"
    INDEX 01 00:54:25
  TRACK 51 AUDIO
    TITLE "0:"
    INDEX 01 00:55:57
  TRACK 52 AUDIO
    TITLE "6:cjc081_1213"
    INDEX 01 00:56:29
  TRACK 53 AUDIO
    TITLE "0:"
    INDEX 01 00:58:58
  TRACK 54 AUDIO
    TITLE "5:cjc081_1214"
    INDEX 01 00:59:26
  TRACK 55 AUDIO
    TITLE "0:"
    INDEX 01 01:00:64
  TRACK 56 AUDIO
    TITLE "6:cjc081_1215"
    INDEX 01 01:01:33
  TRACK 57 AUDIO
    TITLE "0:"
    INDEX 01 01:03:18
  TRACK 58 AUDIO
    TITLE "5:cjc081_1216"
    INDEX 01 01:03:65
  TRACK 59 AUDIO
    TITLE "0:"
    INDEX 01 01:05:15
  TRACK 60 AUDIO
    TITLE "6:cjc081_1217"
    INDEX 01 01:05:64
  TRACK 61 AUDIO
    TITLE "0:"
    INDEX 01 01:06:61
  TRACK 62 AUDIO
    TITLE "7:cjc081_1218"
    INDEX 01 01:08:25
  TRACK 63 AUDIO
    TITLE "0:"
    INDEX 01 01:18:27
